<!DOCTYPE html>
<html lang="en">
<head>
<link rel="shortcut icon" href="FYCLOGO.ico" /><body>
<body style="background-color:rgb(64, 64, 64);">
<meta charset="UTF-8">
<meta http-equiv="X-UA-Compatible" content="IE=edge">
<meta name="viewport" content="width=device-width, initial-scale=1.0">
<title>FYC/Documentaries/Heavy Petting (1989) 720p</title>
</head>
<body>

<center><h1>FYC/Documentaries/Heavy Petting (1989) 720p</h1></center>
<center><h1>The best way to get banned form your ISP</h1></center>
<center><h1>============================</h1></center>

<!--Back-->
<h1>
<style> 
.button {
background-color: rgb(36, 37, 36);
border: none;
color: rgb(0, 0, 0);
padding: 40px 68px;
text-align: center;
text-decoration: none;
display: inline-block;
font-size: 40px;
margin: 4px 2px;
cursor: pointer;
}
</style>
</head>
<body>
<center><a href="Documentaries.html" class="button"><center>Back</center></a></center>
<h1>
<center><h1>============================</h1></center>
<!--End--> 

<!--Stats-->
<center><img src=""></center>
<center><h1>Stats</h1></center>
<center><h1>Title: Heavy Petting (1989) 720p</h1></center>
<center><h1>Category: Documentaries</h1></center>
<center><h1>Type: Documentary</h1></center>
<center><h1>Language: English</h1></center>
<center><h1>Total size: 1.7 GB</h1></center>
<center><h1>Uploaded By: schuy93</h1></center>
<center><h1>============================</h1></center>
<center><h1>Info: 
<p>
!!! Remember I don't own or edit anything on links that might be on this torrent!!!
<hr>
https://www.imdb.com/title/tt0095289/

HEAVY PETTING is a hilarious and salacious exploration of the sexual mores of the 50's as seen through the eyes of a generation that lived through the Sexual Revolution. Creative baby boomers-- including musician David Byrne, performance artist Spalding Gray, comedian Sandra Bernhard, radical activist Abbie Hoffman, and poet Allen Ginsberg-- candidly recall their sexual coming-f-age tales in intimate interviews. Joyously campy and refreshingly carefree, HEAVY PETTING blends humorous, unbelievable footage of unhelpful sex-ed films with classic snippets of THE WILD ONE and Elvis' hip gyrations, not to mention Bernhard talking about playing "doctor", always observant Ginsberg on a disastrous encounter with a girl, and Byrne on the childhood myths of masturbation. Eternal mysteries such as the female orgasm, the universal appeal of Marilyn Monroe, and the rituals of high school are laid bare by this lovable group of characters. 
<img src="heavy.jpg">
Format : MPEG-4
Format profile : Base Media
Codec ID : isom (isom/iso2/avc1/mp41)
File size : 1.71 GiB
Duration : 1 h 14 min
Overall bit rate : 3 283 kb/s
Writing application : Lavf58.51.100

Video
ID : 1
Format : AVC
Format/Info : Advanced Video Codec
Format profile : Main@L3.1
Format settings : CABAC / 4 Ref Frames
Format settings, CABAC : Yes
Format settings, Reference frames : 4 frames
Codec ID : avc1
Codec ID/Info : Advanced Video Coding
Duration : 1 h 14 min
Source duration : 1 h 14 min
Bit rate : 2 952 kb/s
Width : 1 280 pixels
Height : 720 pixels
Display aspect ratio : 16:9
Frame rate mode : Constant
Frame rate : 29.970 (30000/1001) FPS
Color space : YUV
Chroma subsampling : 4:2:0
Bit depth : 8 bits
Scan type : Progressive
Bits/(Pixel*Frame) : 0.107
Stream size : 1.53 GiB (90%)
Source stream size : 1.60 GiB (94%)
mdhd_Duration : 4463092
Codec configuration box : avcC

Audio
ID : 2
Format : AAC LC
Format/Info : Advanced Audio Codec Low Complexity
Codec ID : mp4a-40-2
Duration : 1 h 14 min
Bit rate mode : Constant
Bit rate : 192 kb/s
Channel(s) : 2 channels
Channel layout : L R
Sampling rate : 44.1 kHz
Frame rate : 43.066 FPS (1024 SPF)
Compression mode : Lossy
Stream size : 103 MiB (6%)
Default : Yes
Alternate group : 1
</p></h1></center>
<center><h1>============================</h1></center>

<!--Download-->
<h1>
<style> 
.button {
background-color: rgb(36, 37, 36);
border: none;
color: rgb(0, 0, 0);
padding: 40px 68px;
text-align: center;
text-decoration: none;
display: inline-block;
font-size: 40px;
margin: 4px 2px;
cursor: pointer;
}
</style>
</head>
<body>
<center><a href="magnet:?xt=urn:btih:50F728857A7FDE0E5D1981E1418301FEA0395A70&dn=Heavy+Petting+%281989%29+720p&tr=udp%3A%2F%2Ftracker.tiny-vps.com%3A6969%2Fannounce&tr=udp%3A%2F%2Ffasttracker.foreverpirates.co%3A6969%2Fannounce&tr=udp%3A%2F%2Ftracker.opentrackr.org%3A1337%2Fannounce&tr=udp%3A%2F%2Fexplodie.org%3A6969%2Fannounce&tr=udp%3A%2F%2Fopen.stealth.si%3A80%2Fannounce&tr=udp%3A%2F%2Ftracker.cyberia.is%3A6969%2Fannounce&tr=udp%3A%2F%2Fipv4.tracker.harry.lu%3A80%2Fannounce&tr=udp%3A%2F%2Ftracker.uw0.xyz%3A6969%2Fannounce&tr=udp%3A%2F%2Ftracker.dler.org%3A6969%2Fannounce&tr=udp%3A%2F%2F9.rarbg.to%3A2710%2Fannounce&tr=udp%3A%2F%2Ftracker.bitsearch.to%3A1337%2Fannounce&tr=udp%3A%2F%2Faarsen.me%3A6969%2Fannounce&tr=udp%3A%2F%2Fhtz3.noho.st%3A6969%2Fannounce&tr=udp%3A%2F%2Ftracker.joybomb.tw%3A6969%2Fannounce&tr=udp%3A%2F%2Ftracker.opentrackr.org%3A1337%2Fannounce&tr=http%3A%2F%2Ftracker.openbittorrent.com%3A80%2Fannounce&tr=udp%3A%2F%2Fopentracker.i2p.rocks%3A6969%2Fannounce&tr=udp%3A%2F%2Ftracker.internetwarriors.net%3A1337%2Fannounce&tr=udp%3A%2F%2Ftracker.leechers-paradise.org%3A6969%2Fannounce&tr=udp%3A%2F%2Fcoppersurfer.tk%3A6969%2Fannounce&tr=udp%3A%2F%2Ftracker.zer0day.to%3A1337%2Fannounce" class="button"><center>Downlaod</center></a></center>
<h1>
<center><h1>============================</h1></center>
<!--End--> 

</body>
</html>